# xmcd
#
# Track frame offsets:
#	150
#	14619
#	27763
#	41652
#	53488
#	72244
#	84025
#	104216
#	123762
#
# Disc length: 1873 seconds
#
# Revision: 0
# Processed by: cddbd v1.5.2PL0 Copyright (c) Steve Scherf et al.
# Submitted via: EasyCDDAExtractor 11.0.2.1
#
DISCID=6b074f09
DTITLE=Mell Jones and his Bag o' Bones - Bonehead
DYEAR=2007
DGENRE=Blues
TTITLE0=Happy Man
TTITLE1=You Ain't No Good For Me
TTITLE2=Nashville Don't Need Me
TTITLE3=That Ain't The Way It Goes
TTITLE4=Route 66
TTITLE5=Laid Back
TTITLE6=Doreen
TTITLE7=Sick and Tired
TTITLE8=Cosmic Bone of Mocktown
EXTD=
EXTT0=
EXTT1=
EXTT2=
EXTT3=
EXTT4=
EXTT5=
EXTT6=
EXTT7=
EXTT8=
PLAYORDER=
